<?xml version="1.0" standalone="no"?><!DOCTYPE svg PUBLIC "-//W3C//DTD SVG 1.1//EN" "http://www.w3.org/Graphics/SVG/1.1/DTD/svg11.dtd"><svg t="1638239583189" class="icon" viewBox="0 0 1024 1024" version="1.1" xmlns="http://www.w3.org/2000/svg" p-id="16696" xmlns:xlink="http://www.w3.org/1999/xlink" width="16" height="16"><defs><style type="text/css"></style></defs><path d="M500.458619 317.733932a12.565436 12.565436 0 0 0 11.292286-7.417482L650.496567 15.499216h-28.17536l-121.862588 258.975296L378.568355 15.526893H350.392994l138.773339 294.817234a12.537759 12.537759 0 0 0 11.292286 7.389805z" fill="#2B89D6" p-id="16697"></path><path d="M500.458619 615.263528L218.179145 15.526893H190.031461l299.134872 635.606249c2.131142 4.539056 6.476458 7.362128 11.264609 7.362128s9.161144-2.823072 11.292286-7.362128L810.885778 15.526893H782.68274L500.458619 615.263528z" fill="#2B89D6" p-id="16698"></path><path d="M500.458619 512.415158c13.063625 0 24.964809-7.777285 30.777015-20.121304L755.642143 15.499216h-76.804152l-178.379372 378.983513L322.106925 15.526893H245.275096l224.378831 476.794638c5.839883 12.288664 17.768744 20.093627 30.804692 20.093627z" fill="#CC3D21" p-id="16699"></path><path d="M469.321801 324.929996c22.833667-64.266393 60.28088-64.266393 83.142224 0 22.861344 64.321747 91.971242 92.912266 153.63598 63.629818 61.637061-29.310125 88.096438-2.823072 58.786313 58.81399s-0.636575 130.774636 63.629818 153.63598c64.29407 22.861344 64.29407 60.28088 0 83.142224-64.266393 22.861344-92.912266 91.998919-63.629818 153.635981s2.850749 88.124115-58.786313 58.813989c-61.664739-29.310125-130.774636-0.636575-153.63598 63.629818s-60.308557 64.266393-83.142224 0c-22.889021-64.266393-91.998919-92.912266-153.663657-63.629818-61.637061 29.310125-88.096438 2.823072-58.786313-58.813989s0.664252-130.774636-63.629818-153.635981-64.29407-60.28088 0-83.142224 92.912266-91.998919 63.629818-153.63598-2.823072-88.124115 58.786313-58.81399c61.664739 29.310125 130.774636 0.691929 153.663657-63.629818z" fill="#D69547" p-id="16700"></path><path d="M510.892913 642.580896m-221.417374 0a221.417374 221.417374 0 1 0 442.834748 0 221.417374 221.417374 0 1 0-442.834748 0Z" fill="#BF7F34" p-id="16701"></path><path d="M510.892913 877.836856c-129.750581 0-235.25596-105.533056-235.25596-235.25596s105.533056-235.25596 235.25596-235.25596c129.722904 0 235.25596 105.533056 235.25596 235.25596s-105.560733 235.25596-235.25596 235.25596z m0-442.834748c-114.472782 0-207.578788 93.133683-207.578788 207.578788 0 114.500459 93.106006 207.578788 207.578788 207.578788 114.445105 0 207.578788-93.078329 207.578788-207.578788 0-114.445105-93.133683-207.578788-207.578788-207.578788z" fill="#DBA352" p-id="16702"></path><path d="M498.631926 524.288664c6.75323-13.617168 17.796421-13.617168 24.521974 0l21.975675 44.587924c6.75323 13.617168 24.605006 26.597762 39.661387 28.756581l49.154657 7.196065c15.084059 2.158819 18.488351 12.648467 7.555868 23.304179l-35.565166 34.651819c-10.904806 10.655711-17.71339 31.635007-15.139413 46.608357l8.41386 48.988594c2.573977 15.028704-6.338072 21.505162-19.844532 14.419806l-43.979026-23.138115c-13.478783-7.085356-35.509811-7.085356-49.016271 0l-43.979026 23.138115c-13.478783 7.085356-22.418509 0.581221-19.816855-14.419806l8.386183-48.988594c2.601654-14.97335-4.20693-35.952646-15.139413-46.608357L380.256663 628.133413c-10.904806-10.655711-7.500514-21.145359 7.555867-23.304179l49.154657-7.196065c15.084059-2.158819 32.908157-15.139413 39.661388-28.756581l22.003351-44.587924z" fill="#D69547" p-id="16703"></path></svg>