<?xml version="1.0" standalone="no"?><!DOCTYPE svg PUBLIC "-//W3C//DTD SVG 1.1//EN" "http://www.w3.org/Graphics/SVG/1.1/DTD/svg11.dtd"><svg t="1638239565192" class="icon" viewBox="0 0 1024 1024" version="1.1" xmlns="http://www.w3.org/2000/svg" p-id="16400" xmlns:xlink="http://www.w3.org/1999/xlink" width="16" height="16"><defs><style type="text/css"></style></defs><path d="M501.565706 313.582356a12.565436 12.565436 0 0 0 11.292286-7.417482L651.603654 11.34764h-28.203038l-121.83491 258.975296L379.675442 11.34764H351.527758l138.773339 294.817234a12.454727 12.454727 0 0 0 11.264609 7.417482z" fill="#2B89D6" p-id="16401"></path><path d="M501.565706 611.111952L219.286232 11.34764H191.166225l299.134872 635.606249c2.131142 4.483702 6.476458 7.389805 11.264609 7.389805s9.161144-2.878426 11.292286-7.389805L811.992864 11.34764H783.789826L501.565706 611.111952z" fill="#2B89D6" p-id="16402"></path><path d="M501.565706 508.235905c13.063625 0 24.964809-7.777285 30.749338-20.176659L756.74923 11.34764h-76.776475l-178.379372 378.983513L323.214012 11.34764H246.40986l224.378831 476.739284c5.812206 12.371696 17.741067 20.148981 30.777015 20.148981z" fill="#CC3D21" p-id="16403"></path><path d="M470.456565 329.164603c22.833667-64.321747 60.28088-64.321747 83.142224 0 22.861344 64.266393 91.971242 92.912266 153.663658 63.629818 61.637061-29.310125 88.06876-2.823072 58.758635 58.81399s-0.636575 130.774636 63.629818 153.635981c64.29407 22.861344 64.29407 60.28088 0 83.142223-64.266393 22.861344-92.884588 91.998919-63.629818 153.691335 29.310125 61.581707 2.878426 88.013406-58.758635 58.703281-61.692416-29.310125-130.802314-0.636575-153.663658 63.685173-22.861344 64.266393-60.308557 64.266393-83.142224 0-22.889021-64.321747-91.998919-92.939943-153.663657-63.685173-61.637061 29.310125-88.096438 2.878426-58.786313-58.703281 29.310125-61.692416 0.664252-130.829991-63.629818-153.691335-64.29407-22.861344-64.29407-60.28088 0-83.142223 64.29407-22.861344 92.912266-91.998919 63.629818-153.635981-29.282448-61.637061-2.850749-88.124115 58.786313-58.81399 61.637061 29.282448 130.746959 0.636575 153.663657-63.629818z" fill="#EACB13" p-id="16404"></path><path d="M512 646.787826m-221.417374 0a221.417374 221.417374 0 1 0 442.834748 0 221.417374 221.417374 0 1 0-442.834748 0Z" fill="#E0B028" p-id="16405"></path><path d="M512 882.043786c-129.750581 0-235.25596-105.533056-235.25596-235.25596 0-129.722904 105.533056-235.25596 235.25596-235.255959 129.750581 0 235.25596 105.533056 235.25596 235.255959 0 129.722904-105.505379 235.25596-235.25596 235.25596z m0-442.834748c-114.472782 0-207.578788 93.050651-207.578788 207.578788 0 114.445105 93.106006 207.578788 207.578788 207.578788 114.445105 0 207.578788-93.133683 207.578788-207.578788 0-114.528137-93.133683-207.578788-207.578788-207.578788z" fill="#FFF203" p-id="16406"></path><path d="M499.739013 528.523272c6.75323-13.672523 17.796421-13.672523 24.521974 0l21.947997 44.532569c6.75323 13.672523 24.632683 26.653116 39.689065 28.811936l49.126979 7.14071c15.111736 2.214174 18.516028 12.703822 7.555868 23.304179l-35.565165 34.73485c-10.904806 10.600357-17.71339 31.579653-15.139413 46.608357l8.441537 48.988594c2.573977 15.028704-6.338072 21.449808-19.844532 14.419807l-44.006703-23.082761c-13.478783-7.168387-35.509811-7.168387-49.016271 0l-43.979026 23.082761c-13.478783 7.085356-22.418509 0.608898-19.816855-14.419807l8.386183-48.988594c2.601654-15.028704-4.20693-36.008-15.139413-46.608357L381.363749 632.312666c-10.904806-10.600357-7.500514-21.090005 7.555868-23.304179l49.154657-7.14071c15.084059-2.158819 32.908157-15.139413 39.661387-28.811936l22.003352-44.532569z" fill="#FFF203" p-id="16407"></path></svg>