<?xml version="1.0" standalone="no"?><!DOCTYPE svg PUBLIC "-//W3C//DTD SVG 1.1//EN" "http://www.w3.org/Graphics/SVG/1.1/DTD/svg11.dtd"><svg t="1638239577043" class="icon" viewBox="0 0 1024 1024" version="1.1" xmlns="http://www.w3.org/2000/svg" p-id="16548" xmlns:xlink="http://www.w3.org/1999/xlink" width="16" height="16"><defs><style type="text/css"></style></defs><path d="M500.458619 317.733932a12.565436 12.565436 0 0 0 11.292286-7.417482L650.524245 15.499216h-28.203038l-121.862588 258.975296L378.568355 15.526893H350.392994l138.801016 294.817234a12.454727 12.454727 0 0 0 11.264609 7.389805z" fill="#2B89D6" p-id="16549"></path><path d="M500.458619 615.263528L218.179145 15.526893H190.031461l299.162549 635.606249c2.103465 4.539056 6.476458 7.417482 11.264609 7.417482s9.161144-2.878426 11.292286-7.417482L810.913455 15.526893h-28.203038L500.458619 615.263528z" fill="#2B89D6" p-id="16550"></path><path d="M500.458619 512.415158c13.063625 0 24.964809-7.777285 30.777015-20.121304L755.614466 15.499216h-76.804152l-178.351695 378.983513L322.106925 15.526893H245.275096l224.378831 476.794638c5.839883 12.288664 17.768744 20.093627 30.804692 20.093627z" fill="#CC3D21" p-id="16551"></path><path d="M469.321801 324.929996c22.833667-64.266393 60.28088-64.266393 83.142224 0 22.861344 64.321747 91.971242 92.96762 153.63598 63.685172 61.637061-29.310125 88.096438-2.878426 58.786313 58.758636s-0.636575 130.774636 63.629818 153.63598c64.29407 22.861344 64.29407 60.28088 0 83.142224-64.266393 22.861344-92.912266 91.998919-63.629818 153.635981 29.310125 61.692416 2.850749 88.124115-58.786313 58.813989-61.664739-29.310125-130.774636-0.636575-153.63598 63.629818-22.861344 64.321747-60.308557 64.321747-83.142224 0-22.889021-64.266393-91.998919-92.912266-153.663657-63.629818-61.637061 29.310125-88.096438 2.878426-58.786313-58.813989 29.310125-61.637061 0.664252-130.774636-63.629818-153.635981s-64.29407-60.28088 0-83.142224 92.912266-91.998919 63.629818-153.63598-2.850749-88.06876 58.786313-58.758636c61.664739 29.310125 130.774636 0.636575 153.663657-63.685172z" fill="#C6D5E0" p-id="16552"></path><path d="M510.892913 642.580896m-221.417374 0a221.417374 221.417374 0 1 0 442.834748 0 221.417374 221.417374 0 1 0-442.834748 0Z" fill="#A1B6C4" p-id="16553"></path><path d="M510.892913 877.836856c-129.750581 0-235.25596-105.533056-235.25596-235.25596s105.533056-235.25596 235.25596-235.25596c129.722904 0 235.25596 105.533056 235.25596 235.25596s-105.560733 235.25596-235.25596 235.25596z m0-442.834748c-114.472782 0-207.578788 93.133683-207.578788 207.578788 0 114.500459 93.106006 207.578788 207.578788 207.578788 114.445105 0 207.578788-93.078329 207.578788-207.578788 0-114.445105-93.133683-207.578788-207.578788-207.578788z" fill="#DAE6EF" p-id="16554"></path><path d="M498.631926 524.344019c6.75323-13.672523 17.796421-13.672523 24.521974 0l21.975675 44.532569c6.75323 13.617168 24.605006 26.597762 39.661387 28.811936l49.154657 7.14071c15.084059 2.158819 18.488351 12.648467 7.555868 23.304179l-35.565166 34.651819c-10.904806 10.655711-17.71339 31.635007-15.139413 46.608357l8.41386 48.988594c2.573977 15.028704-6.338072 21.505162-19.844532 14.419806l-43.979026-23.138115c-13.478783-7.085356-35.509811-7.085356-49.016271 0l-43.979026 23.138115c-13.478783 7.085356-22.418509 0.581221-19.816855-14.419806l8.386183-48.988594c2.601654-14.97335-4.20693-35.952646-15.139413-46.608357L380.256663 628.133413c-10.904806-10.655711-7.500514-21.145359 7.555867-23.304179l49.154657-7.14071c15.084059-2.214174 32.908157-15.194767 39.661388-28.811936l22.003351-44.532569z" fill="#C6D5E0" p-id="16555"></path></svg>