<?xml version="1.0" encoding="utf-8"?>
<!-- Generator: Adobe Illustrator 23.1.0, SVG Export Plug-In . SVG Version: 6.00 Build 0)  -->
<svg version="1.1" xmlns="http://www.w3.org/2000/svg" xmlns:xlink="http://www.w3.org/1999/xlink" x="0px" y="0px"
	 viewBox="0 0 1200 1200" style="enable-background:new 0 0 1200 1200;" xml:space="preserve">
<style type="text/css">
	.st0{fill:#F3F6FA;}
	.st1{fill:#D4F1F3;}
	.st2{fill:#C7D8FD;}
	.st3{fill:#FABBD8;}
	.st4{fill:#FCE088;}
	.st5{fill:#6179EF;}
	.st6{fill:#F1F6FF;}
	.st7{fill:#D0E2FF;}
	.st8{fill:url(#SVGID_1_);}
	.st9{opacity:0.19;fill:#0B1066;}
	.st10{fill:#99A2EB;}
	.st11{fill:#FFFFFF;}
	.st12{fill:#B4D1FF;}
	.st13{fill:#F2F5F9;}
	.st14{fill:none;stroke:#F5634A;stroke-miterlimit:10;}
	.st15{fill:#FFFFFF;stroke:#F5634A;stroke-miterlimit:10;}
	.st16{fill:url(#SVGID_2_);}
	.st17{fill:#856CF2;}
	.st18{fill:#F9BC00;}
	.st19{fill:#F16261;}
	.st20{fill:url(#SVGID_3_);}
	.st21{fill:url(#SVGID_4_);}
	.st22{fill:#DEE8FF;}
	.st23{fill:#B0CAE0;}
	.st24{fill:#53C8CE;}
	.st25{fill:#E5ECF5;}
	.st26{fill:#FACA00;}
	.st27{opacity:0.19;}
	.st28{fill:#0B1066;}
	.st29{fill:#5DD777;}
	.st30{fill:url(#SVGID_5_);}
	.st31{fill:#F5634A;}
	.st32{fill:url(#SVGID_6_);}
	.st33{fill:#FBD72A;}
	.st34{fill:url(#SVGID_7_);}
	.st35{fill:#B6D2FF;}
	.st36{fill:#F56463;}
	.st37{fill:#FDEBE5;}
	.st38{fill:#F9D62B;}
	.st39{fill:#FEFFF9;}
	.st40{fill:#1D2088;}
	.st41{fill:url(#SVGID_8_);}
	.st42{fill:#8E74F3;}
	.st43{fill:#F66463;}
	.st44{fill:#2C6FFF;}
	.st45{fill:#EFB594;}
	.st46{fill:#241F4B;}
	.st47{fill:#2942C5;}
	.st48{fill:url(#SVGID_9_);}
	.st49{fill:#150B48;}
	.st50{fill:#423566;}
	.st51{fill:#FBCFBC;}
	.st52{fill:#E04034;}
	.st53{fill:url(#SVGID_10_);}
	.st54{fill:#C1DEFF;}
	.st55{fill:#193C87;}
	.st56{fill:#E5E6EB;}
	.st57{fill:#D1AA05;}
	.st58{fill:url(#SVGID_11_);}
	.st59{fill:#9175F5;}
	.st60{fill:#8AAAFF;}
	.st61{fill:url(#SVGID_12_);}
	.st62{fill:#10224F;}
	.st63{fill:#211D42;}
	.st64{fill:#322D76;}
	.st65{fill:#E84538;}
	.st66{fill:url(#SVGID_13_);}
	.st67{fill:#222220;}
	.st68{fill:url(#SVGID_14_);}
	.st69{fill:#5B9BFD;}
	.st70{fill:#EC6941;}
	.st71{fill:#EB3F17;}
	.st72{fill:#E59A05;}
	.st73{fill:#1A96CF;}
	.st74{fill:#193D9D;}
	.st75{fill:#365ECE;}
	.st76{fill:url(#SVGID_15_);}
	.st77{fill:url(#SVGID_16_);}
	.st78{fill:#F385B5;}
	.st79{fill:#E26DA5;}
	.st80{fill:url(#SVGID_17_);}
	.st81{fill:#2A5CD0;}
	.st82{fill:#F7F8F8;}
	.st83{fill:url(#SVGID_18_);}
	.st84{fill:url(#SVGID_19_);}
	.st85{fill:#DCE7FF;}
	.st86{fill:#3970FF;}
	.st87{fill:url(#SVGID_20_);}
	.st88{fill:#FCBD1F;}
	.st89{clip-path:url(#SVGID_22_);fill:#718BEA;}
	.st90{clip-path:url(#SVGID_22_);fill:#708AEA;}
	.st91{clip-path:url(#SVGID_22_);fill:#6F89EB;}
	.st92{clip-path:url(#SVGID_22_);fill:#6E88EB;}
	.st93{clip-path:url(#SVGID_22_);fill:#6D87EB;}
	.st94{clip-path:url(#SVGID_22_);fill:#6C86EB;}
	.st95{clip-path:url(#SVGID_22_);fill:#6B85EC;}
	.st96{clip-path:url(#SVGID_22_);fill:#6A84EC;}
	.st97{clip-path:url(#SVGID_22_);fill:#6983EC;}
	.st98{clip-path:url(#SVGID_22_);fill:#6981ED;}
	.st99{clip-path:url(#SVGID_22_);fill:#6880ED;}
	.st100{clip-path:url(#SVGID_22_);fill:#677FED;}
	.st101{clip-path:url(#SVGID_22_);fill:#667EEE;}
	.st102{clip-path:url(#SVGID_22_);fill:#657DEE;}
	.st103{clip-path:url(#SVGID_22_);fill:#647CEE;}
	.st104{clip-path:url(#SVGID_22_);fill:#637BEE;}
	.st105{clip-path:url(#SVGID_22_);fill:#627AEF;}
	.st106{clip-path:url(#SVGID_22_);fill:#6179EF;}
	.st107{clip-path:url(#SVGID_24_);fill:#718BEA;}
	.st108{clip-path:url(#SVGID_24_);fill:#708AEA;}
	.st109{clip-path:url(#SVGID_24_);fill:#6F89EB;}
	.st110{clip-path:url(#SVGID_24_);fill:#6E88EB;}
	.st111{clip-path:url(#SVGID_24_);fill:#6D87EB;}
	.st112{clip-path:url(#SVGID_24_);fill:#6C86EB;}
	.st113{clip-path:url(#SVGID_24_);fill:#6B85EC;}
	.st114{clip-path:url(#SVGID_24_);fill:#6A84EC;}
	.st115{clip-path:url(#SVGID_24_);fill:#6983EC;}
	.st116{clip-path:url(#SVGID_24_);fill:#6981ED;}
	.st117{clip-path:url(#SVGID_24_);fill:#6880ED;}
	.st118{clip-path:url(#SVGID_24_);fill:#677FED;}
	.st119{clip-path:url(#SVGID_24_);fill:#667EEE;}
	.st120{clip-path:url(#SVGID_24_);fill:#657DEE;}
	.st121{clip-path:url(#SVGID_24_);fill:#647CEE;}
	.st122{clip-path:url(#SVGID_24_);fill:#637BEE;}
	.st123{clip-path:url(#SVGID_24_);fill:#627AEF;}
	.st124{clip-path:url(#SVGID_24_);fill:#6179EF;}
	.st125{fill:#6252DB;}
	.st126{fill:url(#SVGID_25_);}
	.st127{fill:url(#SVGID_26_);}
	.st128{clip-path:url(#SVGID_28_);fill:#202875;}
	.st129{clip-path:url(#SVGID_28_);fill:#202774;}
	.st130{clip-path:url(#SVGID_28_);fill:#202773;}
	.st131{clip-path:url(#SVGID_28_);fill:#1F2672;}
	.st132{clip-path:url(#SVGID_28_);fill:#1F2571;}
	.st133{clip-path:url(#SVGID_28_);fill:#1F2570;}
	.st134{clip-path:url(#SVGID_28_);fill:#1F246F;}
	.st135{clip-path:url(#SVGID_28_);fill:#1E236E;}
	.st136{clip-path:url(#SVGID_28_);fill:#1E236D;}
	.st137{clip-path:url(#SVGID_28_);fill:#1E226C;}
	.st138{clip-path:url(#SVGID_28_);fill:#1E226B;}
	.st139{clip-path:url(#SVGID_28_);fill:#1D216A;}
	.st140{clip-path:url(#SVGID_28_);fill:#1D2069;}
	.st141{clip-path:url(#SVGID_28_);fill:#1D2068;}
	.st142{clip-path:url(#SVGID_28_);fill:#1D1F67;}
	.st143{clip-path:url(#SVGID_28_);fill:#1C1E66;}
	.st144{clip-path:url(#SVGID_28_);fill:#1C1E65;}
	.st145{clip-path:url(#SVGID_28_);fill:#1C1D64;}
	.st146{clip-path:url(#SVGID_28_);fill:#1C1C63;}
	.st147{clip-path:url(#SVGID_28_);fill:#1B1C62;}
	.st148{clip-path:url(#SVGID_28_);fill:#1B1B61;}
	.st149{clip-path:url(#SVGID_28_);fill:#1B1A60;}
	.st150{clip-path:url(#SVGID_28_);fill:#1B1A5F;}
	.st151{clip-path:url(#SVGID_28_);fill:#1A195E;}
	.st152{clip-path:url(#SVGID_28_);fill:#1A195D;}
	.st153{clip-path:url(#SVGID_28_);fill:#1A185B;}
	.st154{clip-path:url(#SVGID_28_);fill:#1A175A;}
	.st155{clip-path:url(#SVGID_28_);fill:#191759;}
	.st156{clip-path:url(#SVGID_28_);fill:#191658;}
	.st157{clip-path:url(#SVGID_28_);fill:#191557;}
	.st158{clip-path:url(#SVGID_28_);fill:#191556;}
	.st159{clip-path:url(#SVGID_28_);fill:#181455;}
	.st160{clip-path:url(#SVGID_28_);fill:#181354;}
	.st161{clip-path:url(#SVGID_28_);fill:#181353;}
	.st162{clip-path:url(#SVGID_28_);fill:#181252;}
	.st163{clip-path:url(#SVGID_28_);fill:#171151;}
	.st164{clip-path:url(#SVGID_28_);fill:#171150;}
	.st165{clip-path:url(#SVGID_28_);fill:#17104F;}
	.st166{clip-path:url(#SVGID_28_);fill:#170F4E;}
	.st167{clip-path:url(#SVGID_28_);fill:#160F4D;}
	.st168{clip-path:url(#SVGID_28_);fill:#160E4C;}
	.st169{clip-path:url(#SVGID_28_);fill:#160E4B;}
	.st170{clip-path:url(#SVGID_28_);fill:#160D4A;}
	.st171{clip-path:url(#SVGID_28_);fill:#150C49;}
	.st172{clip-path:url(#SVGID_28_);fill:#150C48;}
	.st173{clip-path:url(#SVGID_28_);fill:#150B47;}
	.st174{clip-path:url(#SVGID_28_);fill:#150A46;}
	.st175{clip-path:url(#SVGID_28_);fill:#140A45;}
	.st176{clip-path:url(#SVGID_28_);fill:#140944;}
	.st177{fill:url(#SVGID_29_);}
	.st178{fill:#90BCFC;}
	.st179{fill:#191759;}
	.st180{fill:#B6D7FF;}
	.st181{fill:url(#SVGID_30_);}
	.st182{fill:url(#SVGID_31_);}
	.st183{fill:url(#SVGID_32_);}
	.st184{fill:url(#SVGID_33_);}
	.st185{fill:url(#SVGID_34_);}
	.st186{fill:#DBA203;}
	.st187{fill:url(#SVGID_35_);}
	.st188{fill:url(#SVGID_36_);}
	.st189{fill:url(#SVGID_37_);}
	.st190{fill:url(#SVGID_38_);}
	.st191{fill:url(#SVGID_39_);}
	.st192{fill:url(#SVGID_40_);}
	.st193{fill:#353B42;}
	.st194{fill:url(#SVGID_41_);}
	.st195{fill:url(#SVGID_42_);}
	.st196{fill:#F6AA94;}
	.st197{fill:url(#SVGID_43_);}
	.st198{fill:url(#SVGID_44_);}
	.st199{fill:#F3BE3E;}
	.st200{fill:#FACE46;}
	.st201{fill:url(#SVGID_45_);}
</style>
<g id="暂无内容">
	<g>
		<path class="st0" d="M678.04,253.56c-99.28,42.31-251.87,37.86-335.64,6.81c-176.99-65.6-363.28,99.52-257.72,290.1
			c109.96,198.52-72.96,177.33-1.55,360.87c33.05,84.95,209.09,105.62,524.33,72.45c299.26-31.49,524.64,20.43,530.13-228.53
			c-7.06-115.78-41.56-132.42-25.88-296.63C1127.39,294.42,1054.46,93.14,678.04,253.56z"/>
		<circle class="st24" cx="372.52" cy="335.88" r="59.95"/>
		<g>
			<path class="st11" d="M367.55,370.72c-2.18,0-4.31-0.78-6-2.21l-23.51-20.1c-3.87-3.31-4.33-9.13-1.02-13
				c3.32-3.87,9.14-4.32,13.01-1.02l15.56,13.3l20.7-31.48c2.8-4.25,8.52-5.43,12.78-2.64c4.26,2.8,5.44,8.52,2.64,12.78
				l-26.45,40.22c-1.46,2.21-3.79,3.69-6.41,4.06C368.41,370.69,367.98,370.72,367.55,370.72z"/>
		</g>
		<path class="st5" d="M980.07,959.13h-778.5c-6.22,0-11.26-5.04-11.26-11.26v-548.7c0-6.22,5.04-11.26,11.26-11.26h778.5
			c6.22,0,11.26,5.04,11.26,11.26v548.7C991.33,954.09,986.29,959.13,980.07,959.13z"/>
		<linearGradient id="SVGID_1_" gradientUnits="userSpaceOnUse" x1="190.304" y1="425.3855" x2="991.3321" y2="425.3855">
			<stop  offset="0" style="stop-color:#405AB1"/>
			<stop  offset="1" style="stop-color:#0B1066"/>
		</linearGradient>
		<path class="st8" d="M991.33,462.87H190.3v-63.71c0-6.22,5.04-11.26,11.26-11.26h778.5c6.22,0,11.26,5.04,11.26,11.26V462.87z"/>
		<g>
			<circle class="st11" cx="244.63" cy="427.56" r="13.04"/>
			<path class="st11" d="M295.69,414.52c-7.2,0-13.04,5.84-13.04,13.04c0,7.2,5.84,13.04,13.04,13.04c7.2,0,13.04-5.84,13.04-13.04
				C308.73,420.36,302.9,414.52,295.69,414.52z"/>
			<path class="st11" d="M346.76,414.52c-7.2,0-13.04,5.84-13.04,13.04c0,7.2,5.84,13.04,13.04,13.04c7.2,0,13.04-5.84,13.04-13.04
				C359.8,420.36,353.96,414.52,346.76,414.52z"/>
		</g>
		<path class="st11" d="M939.21,907.8H354.88c-0.88,0-1.6-0.72-1.6-1.6V500.33c0-0.88,0.72-1.6,1.6-1.6h584.33
			c0.88,0,1.6,0.72,1.6,1.6v405.87C940.81,907.08,940.09,907.8,939.21,907.8z"/>
		<path class="st11" d="M317.86,570.43h-84.4c-0.88,0-1.6-0.72-1.6-1.6v-68.91c0-0.88,0.72-1.6,1.6-1.6h84.4
			c0.88,0,1.6,0.72,1.6,1.6v68.91C319.46,569.72,318.75,570.43,317.86,570.43z"/>
		<path class="st11" d="M317.86,681.08h-84.4c-0.88,0-1.6-0.72-1.6-1.6v-68.91c0-0.88,0.72-1.6,1.6-1.6h84.4
			c0.88,0,1.6,0.72,1.6,1.6v68.91C319.46,680.36,318.75,681.08,317.86,681.08z"/>
		<path class="st11" d="M317.86,791.72h-84.4c-0.88,0-1.6-0.72-1.6-1.6V721.2c0-0.88,0.72-1.6,1.6-1.6h84.4c0.88,0,1.6,0.72,1.6,1.6
			v68.91C319.46,791,318.75,791.72,317.86,791.72z"/>
		<path class="st11" d="M317.86,902.36h-84.4c-0.88,0-1.6-0.72-1.6-1.6v-68.91c0-0.88,0.72-1.6,1.6-1.6h84.4
			c0.88,0,1.6,0.72,1.6,1.6v68.91C319.46,901.65,318.75,902.36,317.86,902.36z"/>
		<g>
			<rect x="388.32" y="537.02" class="st7" width="510.93" height="70.92"/>
			<rect x="388.32" y="637.16" class="st7" width="145.82" height="66.39"/>
			<rect x="571.13" y="637.16" class="st7" width="145.82" height="66.39"/>
			<rect x="753.93" y="637.16" class="st7" width="145.82" height="66.39"/>
			<rect x="388.32" y="742.01" class="st7" width="207.52" height="26.89"/>
			<rect x="388.32" y="793.26" class="st7" width="290.1" height="26.89"/>
			<rect x="388.32" y="844.51" class="st7" width="333.01" height="26.89"/>
		</g>
		<g>
			<path class="st9" d="M1040.79,616.2H689.85c-2.21,0-4-1.79-4-4V300.37c0-2.21,1.79-4,4-4h350.95c2.21,0,4,1.79,4,4V612.2
				C1044.8,614.41,1043.01,616.2,1040.79,616.2z"/>
			<path class="st11" d="M1024.09,595.42H689.85c-2.21,0-4-1.79-4-4V300.37c0-2.21,1.79-4,4-4h334.24c2.21,0,4,1.79,4,4v291.06
				C1028.09,593.63,1026.3,595.42,1024.09,595.42z"/>
			<path class="st31" d="M1028.09,353.95H685.84v-53.58c0-2.21,1.79-4,4-4h334.24c2.21,0,4,1.79,4,4V353.95z"/>
			<rect x="713.28" y="378.12" class="st54" width="43.19" height="42.37"/>
			<rect x="794.67" y="378.12" class="st18" width="43.19" height="42.37"/>
			<rect x="876.07" y="378.12" class="st54" width="43.19" height="42.37"/>
			<rect x="957.47" y="378.12" class="st54" width="43.19" height="42.37"/>
			<rect x="713.28" y="446.98" class="st54" width="43.19" height="42.37"/>
			<rect x="794.67" y="446.98" class="st18" width="43.19" height="42.37"/>
			<rect x="876.07" y="446.98" class="st18" width="43.19" height="42.37"/>
			<rect x="957.47" y="446.98" class="st54" width="43.19" height="42.37"/>
			<rect x="713.28" y="518.01" class="st54" width="43.19" height="42.37"/>
			<rect x="794.67" y="518.01" class="st54" width="43.19" height="42.37"/>
			<rect x="876.07" y="518.01" class="st54" width="43.19" height="42.37"/>
			<rect x="957.47" y="518.01" class="st54" width="43.19" height="42.37"/>
			<circle class="st11" cx="716.4" cy="324.27" r="11.61"/>
			<circle class="st11" cx="750.83" cy="324.27" r="11.61"/>
			<circle class="st11" cx="785.67" cy="324.27" r="11.61"/>
		</g>
		<g>
			<path class="st51" d="M1027.56,501.55c0,0-14.51-15.86-16.46-22.69c-1.96-6.83-6.4,1.81-4.71,4.68c1.69,2.87,1.69,2.87,1.69,2.87
				s-3.32-2.23-7.29-5.42c-3.97-3.19-8.91-2.1-8.44,1.57c0.47,3.68-1.18,1.72-1.32,4.01s-2.53,1.9-1.58,4.95
				c0.95,3.05-2.81,3.82,0.76,6.61c3.58,2.79,14.43,5.55,21.07,7.21c6.64,1.66,10.37,6.29,10.37,6.29L1027.56,501.55z"/>
			<path class="st51" d="M1088.72,481.91c0,0-2.04,18.93-7.04,26.11c-5.01,7.18,2.86,7.96,2.86,7.96s-3.3,9.11,4.4,11.16
				c7.7,2.05,9.19,8.98,8.42,17.79c-0.77,8.8,28.62,6.21,28.62,6.21s-2.86-13.87-2.7-30.21c0.17-16.34-3.41-36.24-3.41-36.24
				L1088.72,481.91z"/>
			<path class="st62" d="M1105.82,494.53c-9.1-0.16-25.53-3.46-24.87-14.71c0.66-11.26,4.26-18.49,16.22-15.52
				c11.96,2.97,13.57,6.03,27.22,6.03c13.65,0,18.93,10.05,16.88,25.49c-2.05,15.44-12.33,21.87-14.67,32.88
				c-0.66,3.78-2.71,5.07-8.44,2.97c-5.72-2.09-16.29-9.25-10.05-12.54c6.24-3.3,9.1-11.5,2.05-11.66S1105.82,494.53,1105.82,494.53
				z"/>
			<polygon class="st31" points="1123.76,547.34 1101.06,544.57 1023.28,489.87 1011.34,509.8 1082.55,577.78 1124.48,556.51 			"/>
			<path class="st51" d="M1012.08,641.5c0,0-12.74,3.46-13.71,0c-0.96-3.46-2.65-6.87-4.26-6.35s-3.74,1.93-3.26,5.87
				c-3.14-1.21-6.27,1.61-6.83,3.66c-2.09,1.09-4.14,3.18-2.45,6.55c-0.48,3.66,0.2,5.79,1.77,6.87c0.88,2.97,1.13,3.82,4.42,4.42
				s7.12-1.49,10.09-2.89c2.97-1.41,5.91-3.66,15.44-4.34C1022.81,654.6,1012.08,641.5,1012.08,641.5z"/>
			<polygon class="st51" points="1132.67,945.91 1132.67,967.19 1115.01,967.19 1115.01,939.4 			"/>
			<polygon class="st51" points="1077.04,945.91 1077.04,967.19 1059.37,967.19 1059.37,939.4 			"/>
			<path class="st63" d="M1137.58,957.39c0.05-0.88-0.7-1.58-1.57-1.44c-4.75,0.75-18.38,2.66-23.66,0.93
				c-6.45-2.11-26.59,8.62-31.23,9.04c-4.64,0.42-2.89,9.29-2.89,9.29h58.37L1137.58,957.39z"/>
			<path class="st63" d="M1082.23,957.75c0.05-0.88-0.7-1.58-1.57-1.44c-4.75,0.75-18.38,2.66-23.66,0.93
				c-6.45-2.11-26.59,8.62-31.23,9.04c-4.64,0.42-2.89,9.29-2.89,9.29h58.37L1082.23,957.75z"/>
			<path class="st63" d="M1142.88,695.53c0,0,5.15,23.15,0.32,66.89c-4.82,43.74-7.4,187.81-7.4,187.81l-22.19,0.64l-21.23-171.09
				l-9.65-89.08L1142.88,695.53z"/>
			<path class="st64" d="M1146.1,684.91c0,0,4.5,21.23-15.44,55.31c-19.94,34.09-41.16,77.83-41.16,77.83l-7.4,133.14l-28.62,0.32
				c0,0-7.08-117.7-7.72-143.75c-0.64-26.05,21.87-110.31,21.87-110.31L1146.1,684.91z"/>
			<path class="st31" d="M1149.96,569.95c-0.32-13.83-9.17-34.89-37.47-31.19s-45.99,7.56-46.63,37.3
				c-0.64,29.75,2.25,42.61,0.32,43.09c-1.93,0.48-61.26,20.58-61.26,20.58l2.25,19.94l59.49-6.91l-5.15,51.29l87.79,2.57
				L1149.96,569.95z"/>
			<path class="st65" d="M1066.67,652.76c0,0,26.81-4.78,29.95-12.38c3.14-7.6,5.67-30.03,5.67-30.03s1.93,34.25,0.84,37.75
				c-1.09,3.5-37.39,12.54-37.39,12.54L1066.67,652.76z"/>
		</g>
		<g>
			<path class="st28" d="M372.07,499.84c0,0,2.02,25.05-1.4,29.72c-3.42,4.67,4.36,10.58,5.52,10.5s8.25-18.28,8.25-18.28
				l-2.88-18.28L372.07,499.84z"/>
			<path class="st51" d="M371.4,558.58c0,0.53,24.89,22.25,25.1,21.3c0.21-0.95,1.9-8.44,2.43-10.12
				c0.53-1.69,0.95-16.03,6.75-18.56c5.8-2.53,14.87-13.5,18.77-31.22c3.9-17.72-9.49-31.53-9.49-31.53s-0.76-4.11-13.89-5.85
				c-13.13-1.74-27.46,22.48-28.52,29.18c-1.05,6.7,3.66,11.06,5.4,15.28c1.74,4.22-6.43,18.4-6.43,18.4L371.4,558.58z"/>
			<linearGradient id="SVGID_2_" gradientUnits="userSpaceOnUse" x1="371.3961" y1="498.3174" x2="426.1128" y2="498.3174">
				<stop  offset="0" style="stop-color:#202875"/>
				<stop  offset="1" style="stop-color:#140944"/>
			</linearGradient>
			<path class="st16" d="M389.13,496.75c0,0,0.77,7.75-1.79,11.07c-2.56,3.32-5.8,9.33-5.46,11.94s-2.3-5.69-4.43-6.49
				s-4.35-3.01-5.03,1.9c-0.94-7.59-2.56-15.58,2.3-24.68c4.86-9.1,11.91-15.08,24.35-14.03c12.45,1.05,21.37,4.75,24.89,10.23
				c3.52,5.48,2.16,10.33-0.23,11.86c1.82,1.9,3.35,11.44,1.48,15.34c-2.27-9.91-3.24-14.45-5.8-14.98
				c-3.52-2.06-11.48-2.79-15.63-4.38C399.65,492.98,389.7,494.3,389.13,496.75z"/>
			<path class="st63" d="M347.97,703.51c0,0-12.2,29.08-3.59,56.71c8.61,27.64-19.74,110.2-19.74,110.2l-56.71,82.56l30.15,11.49
				c0,0,62.82-72.15,69.28-92.25c6.46-20.1,33.74-83.64,36.97-92.25s4.67-56.71,4.67-56.71L347.97,703.51z"/>
			<path class="st64" d="M412.94,722.53c0,0,41.28,109.48,43.43,125.28s22.61,113.43,22.61,113.43l-20.46,9.33
				c0,0-36.25-79.69-41.64-113.07c-31.23-43.79-80.41-105.53-79.69-124.56c0.72-19.02,12.2-39.13,12.2-39.13L412.94,722.53z"/>
			<path class="st59" d="M417.97,743.53c0,0-64.79,19.38-105.89-12.56c3.05-39.31,2.87-49,4.49-60.12
				c1.62-11.13,6.27-31.95,5.56-39.66c-0.72-7.72,1.08-26.74,6.65-40.2c5.56-13.46,35.72-37.39,40.26-49
				c15.08,13.76,29.08,25.25,38.29,25.49c9.21,0.24,4.55,9.93,3.59,17.23c-0.96,7.3,2.21,44.87,4.37,57.79
				c2.15,12.92,3.23,31.77,2.33,53.48C416.71,717.68,417.97,743.53,417.97,743.53z"/>
			<path class="st67" d="M269.44,951.23c0,0-2.95,11.53-6.92,17.68c-3.97,6.15-4.87,11.02-6.02,13.45
				c8.07,4.74,18.96,9.48,18.96,9.48s0.38-3.59,8.2,0c7.82,3.59,35.49,8.97,43.43,2.18c-0.38-5.12-0.77-7.82-9.74-10.12
				s-19.47-14.4-18.96-20.91c0.51-6.51-3.2-9.46-9.1-10.1S278.54,954.3,269.44,951.23z"/>
			<path class="st67" d="M454.72,961.52c0,0,0.95,9.51-0.6,15.42c-1.55,5.91-0.85,9.8-1.11,12c8.34,0.66,19.08,0.32,19.08,0.32
				s-0.75-2.77,7.02-2.87s33.08-5.84,37.83-13.62c-1.87-3.63-3.01-5.47-11.38-4.03c-8.37,1.45-21-3.76-22.52-8.72
				c-1.52-4.96-5.59-5.83-10.82-4.23C466.99,957.38,463.43,960.59,454.72,961.52z"/>
			
				<rect x="186.48" y="777.16" transform="matrix(0.8473 0.5311 -0.5311 0.8473 483.8726 -40.3344)" class="st38" width="251.19" height="88.21"/>
			<path class="st11" d="M250.21,818.4l-46.91-29.41c-0.78-0.49-1.01-1.52-0.53-2.29l30.56-48.75c0.49-0.78,1.52-1.01,2.29-0.53
				l46.91,29.41c0.78,0.49,1.01,1.52,0.53,2.29l-30.56,48.75C252.02,818.65,250.99,818.89,250.21,818.4z"/>
			<path class="st11" d="M415.83,860.08l-115.75-72.56c-0.33-0.21-0.43-0.64-0.22-0.97l5.3-8.46c0.21-0.33,0.64-0.43,0.97-0.22
				l115.75,72.56c0.33,0.21,0.43,0.64,0.22,0.97l-5.3,8.46C416.6,860.19,416.16,860.29,415.83,860.08z"/>
			<path class="st11" d="M365.7,858.82l-79.29-49.71c-0.37-0.23-0.49-0.73-0.25-1.1l5.29-8.43c0.23-0.37,0.73-0.49,1.1-0.25
				l79.29,49.71c0.37,0.23,0.49,0.73,0.25,1.1l-5.29,8.43C366.57,858.94,366.07,859.05,365.7,858.82z"/>
			<path class="st11" d="M372.56,894.93l-99.77-62.55c-0.26-0.17-0.34-0.51-0.18-0.78l4.9-7.82c0.17-0.26,0.51-0.34,0.78-0.18
				l99.77,62.55c0.26,0.17,0.34,0.51,0.18,0.78l-4.9,7.82C373.18,895.02,372.83,895.1,372.56,894.93z"/>
			<path class="st51" d="M316.14,704.94c0,0,8.73-5.5,24.41,0.72c-4.91,22.02-8.14,48.22-6.1,53.36c2.03,5.15,7.63,17.08,8.26,18.49
				c0.63,1.41-0.15,9.63-1.17,12c-1.02,2.36-3.83-4.55-4.55-4.94c0.27,2.12-2.39,14.33-6.61,13.3c-4.22-1.03-3.37-3.9-6.28-4.13
				c-2.92-0.22-4.35-0.76-5.61-1.66c-1.66,0.45-2.69,1.53-4.76-1.44s-4.08-6.73-3.01-10.9c1.08-4.17,5.2-21.18,5.2-24.32
				S316.14,704.94,316.14,704.94z"/>
			<polygon class="st9" points="371.4,623.91 349.09,707.32 340.55,705.66 339.15,712.3 355.27,712.3 			"/>
			<g>
				<path class="st31" d="M230.83,788.61c-0.86-0.94-1.37-2.16-1.42-3.45l-0.64-18.05c-0.1-2.97,2.22-5.47,5.19-5.57
					c2.98-0.1,5.47,2.22,5.57,5.19l0.42,11.94l21.71-3.53c2.94-0.47,5.7,1.52,6.18,4.45c0.48,2.94-1.52,5.7-4.45,6.18l-27.74,4.51
					c-1.53,0.25-3.08-0.17-4.28-1.15C231.18,788.97,231,788.8,230.83,788.61z"/>
			</g>
		</g>
		<circle class="st9" cx="828.28" cy="904.45" r="105.53"/>
		<circle class="st17" cx="811.64" cy="890.26" r="105.53"/>
		<g>
			<path class="st11" d="M874.74,860.37c-0.12-10.16-8.06-17.46-18.2-17.85c-2.3-0.09-4.61-0.01-7.26-0.01
				c0-4.52,0.15-8.46-0.04-12.39c-0.24-5.16-3.43-7.84-7.94-6.85c-3.93,0.86-4.78,3.95-4.89,7.34c-0.12,3.8-0.03,7.6-0.03,11.63
				c-17.33,0-34.22,0-51.72,0c0-4.28,0.15-8.23-0.04-12.17c-0.25-5.14-3.48-7.81-7.99-6.79c-3.92,0.89-4.74,3.99-4.85,7.37
				c-0.12,3.79-0.03,7.59-0.03,11.58c-1.55,0.1-2.64,0.31-3.71,0.21c-11.74-1.12-22.45,6.69-22.11,22.17
				c0.49,22.02,0.1,44.06,0.15,66.09c0.01,2.58,0.07,5.24,0.69,7.72c2.3,9.13,9.42,14.15,20.01,14.19
				c16.71,0.07,33.42,0.04,50.12,0.01c13.36-0.02,26.74,0.18,40.09-0.21c10.12-0.29,17.63-7.68,17.74-17.8
				C875.03,909.88,875.03,885.12,874.74,860.37z M853.56,939.87c-28.7,0.01-57.41,0.01-86.11,0c-6.64,0-8.77-2.05-8.78-8.55
				c-0.03-17.69-0.01-35.39,0-53.08c0-0.98,0.1-1.95,0.18-3.39c34.57,0,68.78,0,103.32,0c0.08,1.38,0.2,2.58,0.2,3.77
				c0.01,17.45,0.02,34.89,0,52.34C862.35,937.82,860.31,939.87,853.56,939.87z"/>
			<path class="st11" d="M782.07,900.63c2.97,0,5.93,0,8.9,0c0,0.01,0,0.01,0,0.02c1.61,0,3.21,0,4.82,0c8.36,0,8.48-0.2,8.21-8.46
				c-0.1-3.18-1.53-4.41-4.61-4.33c-4.2,0.11-8.41,0.03-12.61,0.03c-8.78,0-8.95,0.23-8.53,8.86
				C778.37,899.35,779.47,900.63,782.07,900.63z"/>
			<path class="st11" d="M819.46,900.43c0.73,0.34,1.7,0.19,2.57,0.2c2.6,0.02,5.19,0.01,7.79,0.01c1.61,0,3.21,0,4.82,0
				c8.4,0,8.61-0.28,8.13-8.86c-0.14-2.57-1.21-3.9-3.84-3.9c-6.06,0.02-12.12,0-18.17,0.01c-2.44,0-3.9,1.35-3.61,3.67
				C817.51,894.6,815.25,898.45,819.46,900.43z"/>
			<path class="st11" d="M799.86,913.87c-4.45,0.05-8.9,0.01-13.35,0.01c-8.48,0-8.6,0.2-8.26,8.76c0.11,2.84,1.37,4.03,4.11,4
				c2.84-0.04,5.69-0.01,8.53,0c1.61,0.01,3.21,0.01,4.82,0.01c8.49,0,8.76-0.34,8.29-8.74
				C803.84,915.16,802.65,913.84,799.86,913.87z"/>
			<path class="st11" d="M839.08,913.89c-2.97-0.01-5.93,0-8.9-0.01c-1.61,0-3.21,0-4.82,0c-8.45,0-8.78,0.4-8.33,8.73
				c0.15,2.75,1.3,4.07,4.1,4.04c4.45-0.06,8.9-0.01,13.35-0.01c8.57,0,8.95-0.46,8.28-9.08
				C842.58,915.16,841.52,913.9,839.08,913.89z"/>
		</g>
	</g>
</g>
<g id="图层_2">
</g>
</svg>
